<svg id="Layer_1" data-name="Layer 1" xmlns="http://www.w3.org/2000/svg" viewBox="0 0 512 512"><defs><style>.cls-1{fill:#6d4135;}</style></defs><title>cloud-server-outline</title><path class="cls-1" d="M426.67,362.67a64.1,64.1,0,0,0-60.33,42.67h-89v-64H394.67A117.47,117.47,0,0,0,512,224c0-67.27-57.21-121.74-125.09-117.06a159,159,0,0,0-141.58-85.6c-76.62,0-141.85,54.89-156.69,128.28A96,96,0,0,0,96,341.33H234.67v64h-89a64,64,0,1,0,0,42.67H366.34a64,64,0,1,0,60.33-85.33Zm-384-117.33A53.4,53.4,0,0,1,96,192a52.75,52.75,0,0,1,8,.69l22.86,3.46,1.61-23.07C132.7,111.92,184,64,245.33,64a116.71,116.71,0,0,1,109,74.13L361,154.94l17.69-3.84c47.77-10.39,90.64,26.52,90.64,72.91a74.75,74.75,0,0,1-74.67,74.67H96A53.4,53.4,0,0,1,42.67,245.33ZM85.33,448a21.33,21.33,0,1,1,21.33-21.33A21.36,21.36,0,0,1,85.33,448Zm341.33,0A21.33,21.33,0,1,1,448,426.67,21.36,21.36,0,0,1,426.67,448Z"/></svg>