<svg id="Layer_1" data-name="Layer 1" xmlns="http://www.w3.org/2000/svg" viewBox="0 0 512 512"><title>cloud-gear-flat</title><g id="cloud-gear"><path d="M391.63,142.38c-7.88,0-17.59,3.17-26.14,6-1.75.57-3.43,1.12-5,1.62-20.9-54.34-67.08-89.19-118.8-89.19A133,133,0,0,0,109.31,181.08c-2.88-.26-5.53-.39-8.08-.39a101.22,101.22,0,1,0,0,202.43H140l-1.65-6.29a119.7,119.7,0,0,1-2.8-13.8,15.29,15.29,0,0,1,.1-4.28l.82-5.74h-35.2a71.1,71.1,0,1,1,9.43-141.45l26.86,3.53L139,188A102.84,102.84,0,0,1,241.67,90.89c48.84,0,80.1,39.61,92,73.53l7.69,21.79,22.35-5.83c3.25-.85,6.65-2,11.12-3.39s13.71-4.48,16.78-4.48a90.25,90.25,0,0,1,0,180.51H375.55l.84,5.75a14.46,14.46,0,0,1,.12,4.26,122.88,122.88,0,0,1-2.92,13.8l-1.67,6.3h19.71a120.37,120.37,0,0,0,0-240.75Z" fill="#90c8ea"/><path d="M343.14,360.91c-13.61,0-16-7.33-16-16.41s2.41-16.4,16-16.4h18A105.93,105.93,0,0,0,344.29,286l-12.92,11.81c-10,9.19-16.78,5.4-22.9-1.29s-9.29-13.75.74-22.91L321.9,262a106.35,106.35,0,0,0-49.49-21.56v16.94c0,13.61-7.33,16-16.41,16s-16.41-2.42-16.41-16V240.41a106.29,106.29,0,0,0-48,20.4l12.12,12.43c9.49,9.74,5.92,16.6-.57,22.91s-13.45,9.72-22.94,0l-11.39-11.71a106,106,0,0,0-18,43.65h18c13.59,0,16,7.34,16,16.4s-2.43,16.41-16,16.41H150.41A105.88,105.88,0,0,0,166.63,404l14-12.82c10-9.16,16.78-5.39,22.9,1.3s9.29,13.75-.76,22.92l-14.22,13a105.86,105.86,0,0,0,51,22.79V431.62c0-13.6,7.33-16,16.41-16s16.41,2.42,16.41,16v19.61a106,106,0,0,0,42.75-16.64l-13.31-13.67c-9.49-9.74-5.92-16.59.55-22.92s13.45-9.72,22.94,0l14,14.35a106.23,106.23,0,0,0,22.25-51.47Zm-83.55,36.54a53.21,53.21,0,1,1,53.18-53.21A53.21,53.21,0,0,1,259.59,397.45Z" fill="#90c8ea"/><path d="M270.2,315A30.89,30.89,0,0,0,259.14,313,31.69,31.69,0,1,0,270.2,315Zm-11.06,52.34A22.88,22.88,0,1,1,282,344.49,22.76,22.76,0,0,1,259.14,367.39Z" fill="#90c8ea"/></g></svg>