<svg id="Layer_1" data-name="Layer 1" xmlns="http://www.w3.org/2000/svg" viewBox="0 0 512 512"><title>website-glyph</title><path d="M512,21.33A21.33,21.33,0,0,0,490.67,0H21.33A21.33,21.33,0,0,0,0,21.33V490.67A21.33,21.33,0,0,0,21.33,512H490.67A21.33,21.33,0,0,0,512,490.67ZM85.33,384H426.67a21.33,21.33,0,0,1,0,42.67H85.33a21.33,21.33,0,0,1,0-42.67ZM64,320V234.67a21.33,21.33,0,0,1,21.33-21.33h85.33A21.33,21.33,0,0,1,192,234.67V320a21.33,21.33,0,0,1-21.33,21.33H85.33A21.33,21.33,0,0,1,64,320Zm192-21.33H426.67a21.33,21.33,0,0,1,0,42.67H256a21.33,21.33,0,0,1,0-42.67Zm-21.33-64A21.33,21.33,0,0,1,256,213.33H426.67a21.33,21.33,0,0,1,0,42.67H256A21.33,21.33,0,0,1,234.67,234.67Zm-192-192H469.33V128H42.67Zm64,42.67A21.33,21.33,0,1,1,85.33,64,21.33,21.33,0,0,1,106.67,85.33Zm64,0A21.33,21.33,0,1,1,149.33,64,21.33,21.33,0,0,1,170.67,85.33Zm64,0A21.33,21.33,0,1,1,213.33,64,21.33,21.33,0,0,1,234.67,85.33ZM149.33,298.67H106.67V256h42.67Z"/></svg>