<svg id="Layer_1" data-name="Layer 1" xmlns="http://www.w3.org/2000/svg" viewBox="0 0 512 512"><defs><style>.cls-1{fill:#6d4135;}.cls-2{fill:#ffd38d;}.cls-3{opacity:0.1;}</style></defs><title>website-flat</title><path class="cls-1" d="M512,21.33V128H0V21.33A21.4,21.4,0,0,1,21.33,0H490.67A21.4,21.4,0,0,1,512,21.33Z"/><path class="cls-2" d="M512,128V490.67A21.4,21.4,0,0,1,490.67,512H21.33A21.4,21.4,0,0,1,0,490.67V128Z"/><rect class="cls-2" x="42.67" y="42.67" width="42.67" height="42.67" rx="2" ry="2"/><rect class="cls-2" x="106.67" y="42.67" width="42.67" height="42.67" rx="2" ry="2"/><rect class="cls-2" x="170.67" y="42.67" width="42.67" height="42.67" rx="2" ry="2"/><path class="cls-1" d="M192,341.33H106.67A21.33,21.33,0,0,1,85.33,320V234.67a21.33,21.33,0,0,1,21.33-21.33H192a21.33,21.33,0,0,1,21.33,21.33V320A21.33,21.33,0,0,1,192,341.33Zm-64-42.67h42.67V256H128Z"/><path class="cls-1" d="M405.33,256h-128a21.33,21.33,0,0,1,0-42.67h128a21.33,21.33,0,1,1,0,42.67Z"/><path class="cls-1" d="M405.33,341.33h-128a21.33,21.33,0,0,1,0-42.67h128a21.33,21.33,0,1,1,0,42.67Z"/><path class="cls-1" d="M405.33,426.67H106.67a21.33,21.33,0,1,1,0-42.67H405.33a21.33,21.33,0,1,1,0,42.67Z"/><g class="cls-3"><path d="M512,21.33V490.67A21.4,21.4,0,0,1,490.67,512H256V0H490.67A21.4,21.4,0,0,1,512,21.33Z"/></g></svg>